<svg width="48" height="42" viewBox="0 0 48 42" fill="none" xmlns="http://www.w3.org/2000/svg">
<path d="M27.3129 2.05253C25.281 2.05253 23.6287 3.70479 23.6287 5.73674V22.4309L22.5268 20.2269C21.8952 18.9909 20.8405 17.7316 19.665 17.4145C18.6728 17.141 17.7641 17.4942 17.05 17.9079C16.1447 18.4395 15.553 19.1971 15.323 19.9638C15.06 21.0384 15.2809 22.1206 15.7671 23.3026C18.1727 29.2089 21.8526 36.2271 25.8656 40.819C25.9635 40.9316 26.1111 40.9993 26.2603 41H40.4705C40.5834 40.9963 40.6949 40.9554 40.7831 40.8849C42.165 39.8611 43.3596 38.0166 44.352 35.7862C45.3445 33.5558 46.1422 30.9518 46.5066 28.4178C46.885 25.7865 46.9253 23.4328 46.3751 21.4934C45.8248 19.554 44.5934 18.0706 42.6415 17.8421C41.9597 17.8363 41.3665 17.8841 40.8324 18.1875C40.651 17.3819 40.2823 16.7137 39.7633 16.3454C39.0906 15.868 38.3456 15.7282 37.8226 15.7368C37.0954 15.749 36.5091 16.1364 35.997 16.6743C35.7838 16.0936 35.4878 15.6083 35.0759 15.3092C34.414 14.8285 33.6606 14.6842 33.1023 14.6842C32.3624 14.6842 31.6171 14.9638 30.9971 15.4243V5.73678C30.9513 3.34549 29.0239 2.03893 27.3129 2.05253ZM27.3129 3.10517C28.7798 3.10517 29.9445 4.26974 29.9445 5.73674V16.7894C29.9497 17.0252 30.1304 17.2463 30.361 17.2955C30.5917 17.3446 30.8479 17.217 30.9477 17.0033C31.2926 16.2862 32.3142 15.7368 33.1023 15.7368C33.4587 15.7368 34.0258 15.8392 34.451 16.148C34.8761 16.4568 35.2075 16.9325 35.2075 17.8421C35.2022 18.0806 35.3835 18.3094 35.616 18.3628C35.8486 18.4161 36.1099 18.2885 36.2108 18.0723C36.6879 17.118 37.1363 16.8015 37.8555 16.7894C38.127 16.7847 38.7104 16.8853 39.1548 17.2006C39.5991 17.5159 39.9442 17.9952 39.9442 18.8947C39.9495 19.3019 40.5366 19.5529 40.8324 19.273C40.9344 19.1783 41.2149 19.0456 41.556 18.9769C41.8972 18.9083 42.2871 18.8947 42.5757 18.8947C44.0339 19.0941 44.8799 20.0972 45.3553 21.773C45.8385 23.476 45.8457 25.8208 45.4705 28.2532C45.0952 30.6857 44.348 33.2236 43.3981 35.3585C42.4725 37.4387 41.3299 39.0972 40.2403 39.9473H26.5234C22.7031 35.5113 19.0996 28.667 16.7539 22.9079C16.255 21.6237 16.1697 20.8028 16.3263 20.2434C16.5919 19.5091 17.0904 19.0826 17.6092 18.796C18.1996 18.4593 18.7811 18.2677 19.3854 18.4342C20.6171 19.0323 21.0664 19.7816 21.5893 20.7204L23.6781 24.9144C23.779 25.1306 24.0403 25.2582 24.2728 25.2049C24.5053 25.1515 24.6848 24.9227 24.6814 24.6842V5.73674C24.6814 4.26974 25.8459 3.10517 27.3129 3.10517Z" fill="white" stroke="white" stroke-width="0.5"/>
<path d="M6.26237 0.999942C6.07848 0.999731 5.95493 1.07455 5.88405 1.14797L1.14692 5.88481C0.94276 6.09318 0.956903 6.43944 1.15501 6.63323C1.35313 6.82707 1.70978 6.82308 1.90353 6.62481L5.73602 2.79258L5.73602 14.1577C5.73602 14.4484 5.97167 14.684 6.26237 14.684C6.55307 14.684 6.78872 14.4484 6.78872 14.1577L6.78872 2.79258L10.6212 6.62481C10.815 6.82297 11.1716 6.82696 11.3697 6.63323C11.5678 6.43944 11.5861 6.10139 11.3778 5.88481L6.64069 1.14797C6.51604 1.01891 6.43544 1.00605 6.26237 0.999942Z" fill="white" stroke="white" stroke-width="0.5"/>
<path d="M6.26237 25.2104C6.07848 25.2106 5.95493 25.1358 5.88405 25.0624L1.14692 20.3255C0.94276 20.1171 0.956903 19.7709 1.15501 19.5771C1.35313 19.3833 1.70978 19.3873 1.90353 19.5855L5.73602 23.4178L5.73602 12.0526C5.73602 11.7619 5.97167 11.5263 6.26237 11.5263C6.55307 11.5263 6.78872 11.7619 6.78872 12.0526L6.78872 23.4178L10.6212 19.5855C10.815 19.3874 11.1716 19.3834 11.3697 19.5771C11.5678 19.7709 11.5861 20.1089 11.3778 20.3255L6.64069 25.0624C6.51604 25.1914 6.43544 25.2043 6.26237 25.2104Z" fill="white" stroke="white" stroke-width="0.5"/>
</svg>
